<?xml version="1.0" encoding="utf-8"?>
<!-- Generator: Adobe Illustrator 19.0.0, SVG Export Plug-In . SVG Version: 6.00 Build 0)  -->
<svg version="1.1" id="Layer_1" xmlns="http://www.w3.org/2000/svg" xmlns:xlink="http://www.w3.org/1999/xlink" x="0px" y="0px"
	 viewBox="0 0 541.8 44.3" enable-background="new 0 0 541.8 44.3" xml:space="preserve">
<g>
	<path fill="#4E4E4E" d="M27.9,43l-1.6-6.6h-9.2L15.2,43H0L13.5,1.3h18.4L45.4,43H27.9z M22.2,17.7l-2.5,10.1h4.6L22.2,17.7z"/>
	<path fill="#4E4E4E" d="M71.8,43c-2.1,0-3.8-3.1-3.8-6.4v-5.2c0-2.2-0.6-3.6-3.1-3.6h-2.6V43H45.1V1.3h25.2
		C79.6,1.3,85,5.7,85,11.9v2.5c0,4-2.6,7.3-7.6,8.5c5.5,0.7,7.4,4.1,7.4,7.9v5.3c0,2.6,0.7,4.6,1.9,6.5V43H71.8z M68.1,14.6
		c0-1.8-0.9-2.5-3.2-2.5h-2.6V20h2.6c2.3,0,3.2-0.9,3.2-2.8V14.6z"/>
	<path fill="#4E4E4E" d="M108.6,44.3c-13.5,0-22.2-7.5-22.2-18.3v-7.8C86.3,7.5,95.1,0,108.6,0c9.8,0,17,4.2,19.6,9.8L118,16.6
		c-1.8-2.4-4.5-4.3-8-4.3c-4,0-6.1,2.5-6.1,6.4v6.8c0,3.9,2.1,6.4,6.1,6.4c3.4,0,6.2-1.9,8-4.3l10.3,6.9
		C125.5,40,118.4,44.3,108.6,44.3z"/>
	<path fill="#4E4E4E" d="M154.7,43V28.4h-8.3V43h-17.2V1.3h17.2v16h8.3v-16h17.2V43H154.7z"/>
	<path fill="#4E4E4E" d="M175.7,43V1.3h36.5v11.5H193V18h12.1v7.6H193v5.1h19.3V43H175.7z"/>
	<path fill="#4E4E4E" d="M242.4,43c-2.1,0-3.8-3.1-3.8-6.4v-5.2c0-2.2-0.6-3.6-3.1-3.6h-2.6V43h-17.2V1.3h25.2
		c9.4,0,14.8,4.4,14.8,10.6v2.5c0,4-2.6,7.3-7.6,8.5c5.5,0.7,7.4,4.1,7.4,7.9v5.3c0,2.6,0.7,4.6,1.9,6.5V43H242.4z M238.6,14.6
		c0-1.8-0.9-2.5-3.2-2.5h-2.6V20h2.6c2.3,0,3.2-0.9,3.2-2.8V14.6z"/>
	<path fill="#4E4E4E" d="M341.5,43V20.5l-1.7,6L335.1,43h-13.5L317,26.5l-1.6-6V43h-14.5V1.3h23.5l4.4,15.5l1.1,4.4l1.1-4.4
		l4.3-15.5h22.7V43H341.5z"/>
	<path fill="#4E4E4E" d="M385.5,43l-1.6-6.6h-9.2l-1.9,6.6h-15.2l13.5-41.7h18.4L403,43H385.5z M379.8,17.7l-2.5,10.1h4.6
		L379.8,17.7z"/>
	<path fill="#4E4E4E" d="M402.7,43V1.3h17.2v29.4H438V43H402.7z"/>
	<path fill="#4E4E4E" d="M480.2,43V20.5l-1.7,6L473.8,43h-13.5l-4.6-16.5l-1.6-6V43h-14.5V1.3h23.5l4.4,15.5l1.1,4.4l1.1-4.4
		L474,1.3h22.7V43H480.2z"/>
	<path fill="#4E4E4E" d="M520.2,44.3c-13.5,0-21.7-7.8-21.7-18.2v-8c0-10.4,8.1-18.2,21.7-18.2c13.5,0,21.6,7.8,21.6,18.2v8
		C541.8,36.5,533.6,44.3,520.2,44.3z M524.3,16.7c0-3-1.3-4.6-4.1-4.6s-4.1,1.6-4.1,4.6v10.9c0,2.9,1.3,4.6,4.1,4.6s4.1-1.6,4.1-4.6
		V16.7z"/>
	<path fill="#FF5C00" d="M259.3,7.7c0-6.1,4.3-8.5,9.5-5.5l25,14.4c5.3,3,5.3,8,0,11l-25,14.4c-5.2,3-9.5,0.6-9.5-5.5V7.7z"/>
</g>
</svg>
